<mxfile host="app.diagrams.net" modified="2024-09-12T10:55:10.931Z" agent="Mozilla/5.0 (Windows NT 10.0; Win64; x64; rv:130.0) Gecko/20100101 Firefox/130.0" etag="rmE7DFJVF2D94EobRjYG" version="24.6.4" type="github">
  <diagram name="第 1 页" id="h4iiI1h9H1woldRgEM1Y">
    <mxGraphModel dx="1588" dy="930" grid="1" gridSize="10" guides="1" tooltips="1" connect="1" arrows="1" fold="1" page="1" pageScale="1" pageWidth="1654" pageHeight="1169" math="0" shadow="0">
      <root>
        <mxCell id="0" />
        <mxCell id="1" parent="0" />
        <mxCell id="Qd0CcySC9wJVUX0zvVi2-1" value="" style="rounded=0;whiteSpace=wrap;html=1;fontFamily=黑体;fontSize=16;" vertex="1" parent="1">
          <mxGeometry x="90" y="280" width="1287.5" height="80" as="geometry" />
        </mxCell>
        <mxCell id="Qd0CcySC9wJVUX0zvVi2-2" value="$" style="rounded=0;whiteSpace=wrap;html=1;fontFamily=黑体;fontSize=16;" vertex="1" parent="1">
          <mxGeometry x="82.5" y="280" width="55" height="80" as="geometry" />
        </mxCell>
        <mxCell id="Qd0CcySC9wJVUX0zvVi2-3" value="设备ID" style="rounded=0;whiteSpace=wrap;html=1;fontFamily=黑体;fontSize=16;" vertex="1" parent="1">
          <mxGeometry x="137.5" y="280" width="70" height="80" as="geometry" />
        </mxCell>
        <mxCell id="Qd0CcySC9wJVUX0zvVi2-5" value="&lt;font style=&quot;font-size: 16px;&quot;&gt;,&lt;/font&gt;" style="rounded=0;whiteSpace=wrap;html=1;fontFamily=黑体;fontSize=16;" vertex="1" parent="1">
          <mxGeometry x="307.5" y="280" width="30" height="80" as="geometry" />
        </mxCell>
        <mxCell id="Qd0CcySC9wJVUX0zvVi2-7" value="时间" style="rounded=0;whiteSpace=wrap;html=1;fontFamily=黑体;fontSize=16;" vertex="1" parent="1">
          <mxGeometry x="337.5" y="280" width="70" height="80" as="geometry" />
        </mxCell>
        <mxCell id="Qd0CcySC9wJVUX0zvVi2-8" value="经度" style="rounded=0;whiteSpace=wrap;html=1;fontFamily=黑体;fontSize=16;" vertex="1" parent="1">
          <mxGeometry x="437.5" y="280" width="70" height="80" as="geometry" />
        </mxCell>
        <mxCell id="Qd0CcySC9wJVUX0zvVi2-9" value="&lt;font style=&quot;font-size: 16px;&quot;&gt;,&lt;/font&gt;" style="rounded=0;whiteSpace=wrap;html=1;fontFamily=黑体;fontSize=16;" vertex="1" parent="1">
          <mxGeometry x="407.5" y="280" width="30" height="80" as="geometry" />
        </mxCell>
        <mxCell id="Qd0CcySC9wJVUX0zvVi2-10" value="&lt;font style=&quot;font-size: 16px;&quot;&gt;,&lt;/font&gt;" style="rounded=0;whiteSpace=wrap;html=1;fontFamily=黑体;fontSize=16;" vertex="1" parent="1">
          <mxGeometry x="507.5" y="280" width="30" height="80" as="geometry" />
        </mxCell>
        <mxCell id="Qd0CcySC9wJVUX0zvVi2-11" value="纬度" style="rounded=0;whiteSpace=wrap;html=1;fontFamily=黑体;fontSize=16;" vertex="1" parent="1">
          <mxGeometry x="537.5" y="280" width="70" height="80" as="geometry" />
        </mxCell>
        <mxCell id="Qd0CcySC9wJVUX0zvVi2-12" value="&lt;font style=&quot;font-size: 16px;&quot;&gt;,&lt;/font&gt;" style="rounded=0;whiteSpace=wrap;html=1;fontFamily=黑体;fontSize=16;" vertex="1" parent="1">
          <mxGeometry x="607.5" y="280" width="30" height="80" as="geometry" />
        </mxCell>
        <mxCell id="Qd0CcySC9wJVUX0zvVi2-13" value="高程" style="rounded=0;whiteSpace=wrap;html=1;fontFamily=黑体;fontSize=16;" vertex="1" parent="1">
          <mxGeometry x="637.5" y="280" width="70" height="80" as="geometry" />
        </mxCell>
        <mxCell id="Qd0CcySC9wJVUX0zvVi2-14" value="&lt;font style=&quot;font-size: 16px;&quot;&gt;,&lt;/font&gt;" style="rounded=0;whiteSpace=wrap;html=1;fontFamily=黑体;fontSize=16;" vertex="1" parent="1">
          <mxGeometry x="707.5" y="280" width="30" height="80" as="geometry" />
        </mxCell>
        <mxCell id="Qd0CcySC9wJVUX0zvVi2-15" value="航向角" style="rounded=0;whiteSpace=wrap;html=1;fontFamily=黑体;fontSize=16;" vertex="1" parent="1">
          <mxGeometry x="737.5" y="280" width="70" height="80" as="geometry" />
        </mxCell>
        <mxCell id="Qd0CcySC9wJVUX0zvVi2-16" value="&lt;font style=&quot;font-size: 16px;&quot;&gt;,&lt;/font&gt;" style="rounded=0;whiteSpace=wrap;html=1;fontFamily=黑体;fontSize=16;" vertex="1" parent="1">
          <mxGeometry x="807.5" y="280" width="30" height="80" as="geometry" />
        </mxCell>
        <mxCell id="Qd0CcySC9wJVUX0zvVi2-17" value="俯仰角" style="rounded=0;whiteSpace=wrap;html=1;fontFamily=黑体;fontSize=16;" vertex="1" parent="1">
          <mxGeometry x="837.5" y="280" width="70" height="80" as="geometry" />
        </mxCell>
        <mxCell id="Qd0CcySC9wJVUX0zvVi2-18" value="横滚角" style="rounded=0;whiteSpace=wrap;html=1;fontFamily=黑体;fontSize=16;" vertex="1" parent="1">
          <mxGeometry x="937.5" y="280" width="70" height="80" as="geometry" />
        </mxCell>
        <mxCell id="Qd0CcySC9wJVUX0zvVi2-19" value="&lt;font style=&quot;font-size: 16px;&quot;&gt;,&lt;/font&gt;" style="rounded=0;whiteSpace=wrap;html=1;fontFamily=黑体;fontSize=16;" vertex="1" parent="1">
          <mxGeometry x="907.5" y="280" width="30" height="80" as="geometry" />
        </mxCell>
        <mxCell id="Qd0CcySC9wJVUX0zvVi2-20" value="&lt;font style=&quot;font-size: 16px;&quot;&gt;,&lt;/font&gt;" style="rounded=0;whiteSpace=wrap;html=1;fontFamily=黑体;fontSize=16;" vertex="1" parent="1">
          <mxGeometry x="1007.5" y="280" width="30" height="80" as="geometry" />
        </mxCell>
        <mxCell id="Qd0CcySC9wJVUX0zvVi2-21" value="行驶速度" style="rounded=0;whiteSpace=wrap;html=1;fontFamily=黑体;fontSize=16;" vertex="1" parent="1">
          <mxGeometry x="1037.5" y="280" width="70" height="80" as="geometry" />
        </mxCell>
        <mxCell id="Qd0CcySC9wJVUX0zvVi2-22" value="&lt;font style=&quot;font-size: 16px;&quot;&gt;,&lt;/font&gt;" style="rounded=0;whiteSpace=wrap;html=1;fontFamily=黑体;fontSize=16;" vertex="1" parent="1">
          <mxGeometry x="1107.5" y="280" width="30" height="80" as="geometry" />
        </mxCell>
        <mxCell id="Qd0CcySC9wJVUX0zvVi2-24" value="错误码" style="rounded=0;whiteSpace=wrap;html=1;fontFamily=黑体;fontSize=16;" vertex="1" parent="1">
          <mxGeometry x="1237.5" y="280" width="70" height="80" as="geometry" />
        </mxCell>
        <mxCell id="Qd0CcySC9wJVUX0zvVi2-25" value="CRC" style="rounded=0;whiteSpace=wrap;html=1;fontFamily=黑体;fontSize=16;" vertex="1" parent="1">
          <mxGeometry x="1307.5" y="280" width="70" height="80" as="geometry" />
        </mxCell>
        <mxCell id="Qd0CcySC9wJVUX0zvVi2-26" value="" style="endArrow=none;html=1;rounded=0;fontFamily=黑体;fontSize=16;" edge="1" parent="1">
          <mxGeometry width="50" height="50" relative="1" as="geometry">
            <mxPoint x="109.84" y="260" as="sourcePoint" />
            <mxPoint x="109.84" y="280" as="targetPoint" />
          </mxGeometry>
        </mxCell>
        <mxCell id="Qd0CcySC9wJVUX0zvVi2-28" value="" style="endArrow=none;html=1;rounded=0;fontFamily=黑体;fontSize=16;" edge="1" parent="1">
          <mxGeometry width="50" height="50" relative="1" as="geometry">
            <mxPoint x="109.80000000000001" y="360" as="sourcePoint" />
            <mxPoint x="109.80000000000001" y="380" as="targetPoint" />
          </mxGeometry>
        </mxCell>
        <mxCell id="Qd0CcySC9wJVUX0zvVi2-31" value="" style="endArrow=none;html=1;rounded=0;fontFamily=黑体;fontSize=16;" edge="1" parent="1">
          <mxGeometry width="50" height="50" relative="1" as="geometry">
            <mxPoint x="322.26" y="360" as="sourcePoint" />
            <mxPoint x="322.26" y="380" as="targetPoint" />
          </mxGeometry>
        </mxCell>
        <mxCell id="Qd0CcySC9wJVUX0zvVi2-32" value="" style="endArrow=none;html=1;rounded=0;fontFamily=黑体;fontSize=16;" edge="1" parent="1">
          <mxGeometry width="50" height="50" relative="1" as="geometry">
            <mxPoint x="422.26" y="360" as="sourcePoint" />
            <mxPoint x="422.26" y="380" as="targetPoint" />
          </mxGeometry>
        </mxCell>
        <mxCell id="Qd0CcySC9wJVUX0zvVi2-33" value="" style="endArrow=none;html=1;rounded=0;fontFamily=黑体;fontSize=16;" edge="1" parent="1">
          <mxGeometry width="50" height="50" relative="1" as="geometry">
            <mxPoint x="522.26" y="360" as="sourcePoint" />
            <mxPoint x="522.26" y="380" as="targetPoint" />
          </mxGeometry>
        </mxCell>
        <mxCell id="Qd0CcySC9wJVUX0zvVi2-34" value="" style="endArrow=none;html=1;rounded=0;fontFamily=黑体;fontSize=16;" edge="1" parent="1">
          <mxGeometry width="50" height="50" relative="1" as="geometry">
            <mxPoint x="622.26" y="360" as="sourcePoint" />
            <mxPoint x="622.26" y="380" as="targetPoint" />
          </mxGeometry>
        </mxCell>
        <mxCell id="Qd0CcySC9wJVUX0zvVi2-35" value="" style="endArrow=none;html=1;rounded=0;fontFamily=黑体;fontSize=16;" edge="1" parent="1">
          <mxGeometry width="50" height="50" relative="1" as="geometry">
            <mxPoint x="722.26" y="360" as="sourcePoint" />
            <mxPoint x="722.26" y="380" as="targetPoint" />
          </mxGeometry>
        </mxCell>
        <mxCell id="Qd0CcySC9wJVUX0zvVi2-36" value="" style="endArrow=none;html=1;rounded=0;fontFamily=黑体;fontSize=16;" edge="1" parent="1">
          <mxGeometry width="50" height="50" relative="1" as="geometry">
            <mxPoint x="822.21" y="360" as="sourcePoint" />
            <mxPoint x="822.21" y="380" as="targetPoint" />
          </mxGeometry>
        </mxCell>
        <mxCell id="Qd0CcySC9wJVUX0zvVi2-37" value="" style="endArrow=none;html=1;rounded=0;fontFamily=黑体;fontSize=16;" edge="1" parent="1">
          <mxGeometry width="50" height="50" relative="1" as="geometry">
            <mxPoint x="922.21" y="360" as="sourcePoint" />
            <mxPoint x="922.21" y="380" as="targetPoint" />
          </mxGeometry>
        </mxCell>
        <mxCell id="Qd0CcySC9wJVUX0zvVi2-38" value="" style="endArrow=none;html=1;rounded=0;fontFamily=黑体;fontSize=16;" edge="1" parent="1">
          <mxGeometry width="50" height="50" relative="1" as="geometry">
            <mxPoint x="1022.21" y="360" as="sourcePoint" />
            <mxPoint x="1022.21" y="380" as="targetPoint" />
          </mxGeometry>
        </mxCell>
        <mxCell id="Qd0CcySC9wJVUX0zvVi2-39" value="" style="endArrow=none;html=1;rounded=0;fontFamily=黑体;fontSize=16;" edge="1" parent="1">
          <mxGeometry width="50" height="50" relative="1" as="geometry">
            <mxPoint x="1122.21" y="360" as="sourcePoint" />
            <mxPoint x="1122.21" y="380" as="targetPoint" />
          </mxGeometry>
        </mxCell>
        <mxCell id="Qd0CcySC9wJVUX0zvVi2-40" value="帧头" style="text;html=1;align=center;verticalAlign=middle;whiteSpace=wrap;rounded=0;fontFamily=黑体;fontSize=16;" vertex="1" parent="1">
          <mxGeometry x="80" y="370" width="60" height="30" as="geometry" />
        </mxCell>
        <mxCell id="Qd0CcySC9wJVUX0zvVi2-42" value="分隔符" style="text;html=1;align=center;verticalAlign=middle;whiteSpace=wrap;rounded=0;fontFamily=黑体;fontSize=16;" vertex="1" parent="1">
          <mxGeometry x="292.5" y="370" width="60" height="30" as="geometry" />
        </mxCell>
        <mxCell id="Qd0CcySC9wJVUX0zvVi2-43" value="分隔符" style="text;html=1;align=center;verticalAlign=middle;whiteSpace=wrap;rounded=0;fontFamily=黑体;fontSize=16;" vertex="1" parent="1">
          <mxGeometry x="392.5" y="370" width="60" height="30" as="geometry" />
        </mxCell>
        <mxCell id="Qd0CcySC9wJVUX0zvVi2-44" value="分隔符" style="text;html=1;align=center;verticalAlign=middle;whiteSpace=wrap;rounded=0;fontFamily=黑体;fontSize=16;" vertex="1" parent="1">
          <mxGeometry x="492.5" y="370" width="60" height="30" as="geometry" />
        </mxCell>
        <mxCell id="Qd0CcySC9wJVUX0zvVi2-45" value="分隔符" style="text;html=1;align=center;verticalAlign=middle;whiteSpace=wrap;rounded=0;fontFamily=黑体;fontSize=16;" vertex="1" parent="1">
          <mxGeometry x="592.5" y="370" width="60" height="30" as="geometry" />
        </mxCell>
        <mxCell id="Qd0CcySC9wJVUX0zvVi2-46" value="分隔符" style="text;html=1;align=center;verticalAlign=middle;whiteSpace=wrap;rounded=0;fontFamily=黑体;fontSize=16;" vertex="1" parent="1">
          <mxGeometry x="692.5" y="370" width="60" height="30" as="geometry" />
        </mxCell>
        <mxCell id="Qd0CcySC9wJVUX0zvVi2-47" value="分隔符" style="text;html=1;align=center;verticalAlign=middle;whiteSpace=wrap;rounded=0;fontFamily=黑体;fontSize=16;" vertex="1" parent="1">
          <mxGeometry x="792.5" y="370" width="60" height="30" as="geometry" />
        </mxCell>
        <mxCell id="Qd0CcySC9wJVUX0zvVi2-48" value="分隔符" style="text;html=1;align=center;verticalAlign=middle;whiteSpace=wrap;rounded=0;fontFamily=黑体;fontSize=16;" vertex="1" parent="1">
          <mxGeometry x="892.5" y="370" width="60" height="30" as="geometry" />
        </mxCell>
        <mxCell id="Qd0CcySC9wJVUX0zvVi2-49" value="分隔符" style="text;html=1;align=center;verticalAlign=middle;whiteSpace=wrap;rounded=0;fontFamily=黑体;fontSize=16;" vertex="1" parent="1">
          <mxGeometry x="992.5" y="370" width="60" height="30" as="geometry" />
        </mxCell>
        <mxCell id="Qd0CcySC9wJVUX0zvVi2-50" value="分隔符" style="text;html=1;align=center;verticalAlign=middle;whiteSpace=wrap;rounded=0;fontFamily=黑体;fontSize=16;" vertex="1" parent="1">
          <mxGeometry x="1092.5" y="370" width="60" height="30" as="geometry" />
        </mxCell>
        <mxCell id="Qd0CcySC9wJVUX0zvVi2-51" value="帧尾" style="text;html=1;align=center;verticalAlign=middle;whiteSpace=wrap;rounded=0;fontFamily=黑体;fontSize=16;" vertex="1" parent="1">
          <mxGeometry x="1312.5" y="370" width="60" height="30" as="geometry" />
        </mxCell>
        <mxCell id="Qd0CcySC9wJVUX0zvVi2-52" value="" style="endArrow=none;html=1;rounded=0;fontFamily=黑体;fontSize=16;" edge="1" parent="1">
          <mxGeometry width="50" height="50" relative="1" as="geometry">
            <mxPoint x="1342.31" y="360" as="sourcePoint" />
            <mxPoint x="1342.31" y="380" as="targetPoint" />
          </mxGeometry>
        </mxCell>
        <mxCell id="Qd0CcySC9wJVUX0zvVi2-54" value="1字节" style="text;html=1;align=center;verticalAlign=middle;whiteSpace=wrap;rounded=0;fontFamily=黑体;fontSize=16;" vertex="1" parent="1">
          <mxGeometry x="80" y="240" width="60" height="30" as="geometry" />
        </mxCell>
        <mxCell id="Qd0CcySC9wJVUX0zvVi2-55" value="2字节" style="text;html=1;align=center;verticalAlign=middle;whiteSpace=wrap;rounded=0;fontFamily=黑体;fontSize=16;" vertex="1" parent="1">
          <mxGeometry x="1312.5" y="240" width="60" height="30" as="geometry" />
        </mxCell>
        <mxCell id="Qd0CcySC9wJVUX0zvVi2-57" value="" style="endArrow=none;html=1;rounded=0;fontFamily=黑体;fontSize=16;" edge="1" parent="1">
          <mxGeometry width="50" height="50" relative="1" as="geometry">
            <mxPoint x="1342.31" y="260" as="sourcePoint" />
            <mxPoint x="1342.31" y="280" as="targetPoint" />
          </mxGeometry>
        </mxCell>
        <mxCell id="Qd0CcySC9wJVUX0zvVi2-58" value="行驶距离" style="rounded=0;whiteSpace=wrap;html=1;fontFamily=黑体;fontSize=16;" vertex="1" parent="1">
          <mxGeometry x="1137.5" y="280" width="70" height="80" as="geometry" />
        </mxCell>
        <mxCell id="Qd0CcySC9wJVUX0zvVi2-59" value="&lt;font style=&quot;font-size: 16px;&quot;&gt;,&lt;/font&gt;" style="rounded=0;whiteSpace=wrap;html=1;fontFamily=黑体;fontSize=16;" vertex="1" parent="1">
          <mxGeometry x="1207.5" y="280" width="30" height="80" as="geometry" />
        </mxCell>
        <mxCell id="Qd0CcySC9wJVUX0zvVi2-60" value="&lt;font style=&quot;font-size: 16px;&quot;&gt;,&lt;/font&gt;" style="rounded=0;whiteSpace=wrap;html=1;fontFamily=黑体;fontSize=16;" vertex="1" parent="1">
          <mxGeometry x="207.5" y="280" width="30" height="80" as="geometry" />
        </mxCell>
        <mxCell id="Qd0CcySC9wJVUX0zvVi2-61" value="功能码" style="rounded=0;whiteSpace=wrap;html=1;fontFamily=黑体;fontSize=16;" vertex="1" parent="1">
          <mxGeometry x="237.5" y="280" width="70" height="80" as="geometry" />
        </mxCell>
        <mxCell id="Qd0CcySC9wJVUX0zvVi2-62" value="" style="endArrow=none;html=1;rounded=0;fontFamily=黑体;fontSize=16;" edge="1" parent="1">
          <mxGeometry width="50" height="50" relative="1" as="geometry">
            <mxPoint x="219.76999999999998" y="360" as="sourcePoint" />
            <mxPoint x="219.76999999999998" y="380" as="targetPoint" />
          </mxGeometry>
        </mxCell>
        <mxCell id="Qd0CcySC9wJVUX0zvVi2-63" value="分隔符" style="text;html=1;align=center;verticalAlign=middle;whiteSpace=wrap;rounded=0;fontFamily=黑体;fontSize=16;" vertex="1" parent="1">
          <mxGeometry x="190" y="370" width="60" height="30" as="geometry" />
        </mxCell>
      </root>
    </mxGraphModel>
  </diagram>
</mxfile>
